{
  "asset": {
    "version": "2.0",
    "generator": "zed-gltf sample"
  },
  "scene": 0,
  "scenes": [
    {
      "nodes": [0]
    }
  ],
  "nodes": [
    {
      "name": "Sample Triangle",
      "mesh": 0
    }
  ],
  "meshes": [
    {
      "name": "Sample Mesh",
      "primitives": [
        {
          "attributes": {
            "POSITION": 0
          },
          "indices": 1,
          "material": 0
        }
      ]
    }
  ],
  "materials": [
    {
      "name": "Zed Teal",
      "doubleSided": true,
      "pbrMetallicRoughness": {
        "baseColorFactor": [0.22, 0.78, 0.92, 1.0],
        "metallicFactor": 0.1,
        "roughnessFactor": 0.44
      }
    }
  ],
  "buffers": [
    {
      "uri": "data:application/octet-stream;base64,",
      "byteLength": 42
    }
  ],
  "bufferViews": [
    {
      "buffer": 0,
      "byteOffset": 0,
      "byteLength": 36,
      "target": 34962
    },
    {
      "buffer": 0,
      "byteOffset": 36,
      "byteLength": 6,
      "target": 34963
    }
  ],
  "accessors": [
    {
      "bufferView": 0,
      "componentType": 5126,
      "count": 3,
      "type": "VEC3",
      "min": [0, 0, 0],
      "max": [1, 1, 0]
    },
    {
      "bufferView": 1,
      "componentType": 5123,
      "count": 3,
      "type": "SCALAR",
      "min": [0],
      "max": [2]
    }
  ]
}
